# xmcd
#
# Track frame offsets:
#	150
#	16746
#	26707
#	42430
#	60183
#	65880
#	80532
#	96686
#	110830
#	126019
#	145969
#	158266
#
# Disc length: 2283 seconds
#
# Revision: 0
# Processed by: cddbd v1.5.2PL0 Copyright (c) Steve Scherf et al.
# Submitted via: EasyCDDAExtractor 12.0.1.1
#
DISCID=a108e90c
DTITLE=Pekka Myllykoski ja Jyt‰jemmarit - Viimeinen boheemi
DYEAR=2009
DGENRE=
TTITLE0=Poikakuoro
TTITLE1=Navanalusjuttu
TTITLE2=Kaksi kalossia
TTITLE3=J‰‰r‰
TTITLE4=Haaveile (Dream On)
TTITLE5=Jos vain osaisin laulaa kantria (lailla Pekka Myllykosken)
TTITLE6=Ullakon tuuletus
TTITLE7=Oodi konjakille
TTITLE8=Jumala-blues
TTITLE9=Helposti s‰rkyv‰‰
TTITLE10=Paskahousu
TTITLE11=Petterin mandoliini
EXTD=
EXTT0=
EXTT1=
EXTT2=
EXTT3=
EXTT4=
EXTT5=
EXTT6=
EXTT7=
EXTT8=
EXTT9=
EXTT10=
EXTT11=
PLAYORDER=
